<?xml version="1.0" encoding="UTF-8"?>
<svg width="515px" height="84px" viewBox="0 0 515 84" version="1.1" xmlns="http://www.w3.org/2000/svg" xmlns:xlink="http://www.w3.org/1999/xlink">
    <!-- Generator: Sketch 43.2 (39069) - http://www.bohemiancoding.com/sketch -->
    <title>Artboard</title>
    <desc>Created with Sketch.</desc>
    <defs></defs>
    <g id="Page-1" stroke="none" stroke-width="1" fill="none" fill-rule="evenodd">
        <g id="Artboard" fill="#000000">
            <g id="Group">
                <path d="M0.311192471,39.46128 L0.311192471,0 L16.6487972,0 L32.986402,0 L32.986402,3.28844 L32.986402,6.57688 L36.2539229,6.57688 L39.5214439,6.57688 L39.5214439,26.30752 L39.5214439,46.03816 L36.2539229,46.03816 L32.986402,46.03816 L32.986402,49.3266 L32.986402,52.61504 L23.1838391,52.61504 L13.3812763,52.61504 L13.3812763,65.7688 L13.3812763,78.92256 L6.84623437,78.92256 L0.311192471,78.92256 L0.311192471,39.46128 Z M26.4513601,26.30752 L26.4513601,13.15376 L19.9163182,13.15376 L13.3812763,13.15376 L13.3812763,26.30752 L13.3812763,39.46128 L19.9163182,39.46128 L26.4513601,39.46128 L26.4513601,26.30752 Z M45.7452933,6.57688 L45.7452933,0 L65.350419,0 L84.9555447,0 L84.9555447,6.57688 L84.9555447,13.15376 L78.4205028,13.15376 L71.8854609,13.15376 L71.8854609,39.46128 L71.8854609,65.7688 L78.4205028,65.7688 L84.9555447,65.7688 L84.9555447,72.34568 L84.9555447,78.92256 L65.350419,78.92256 L45.7452933,78.92256 L45.7452933,72.34568 L45.7452933,65.7688 L52.2803352,65.7688 L58.8153771,65.7688 L58.8153771,39.46128 L58.8153771,13.15376 L52.2803352,13.15376 L45.7452933,13.15376 L45.7452933,6.57688 Z M91.1793941,9.86532 L91.1793941,0 L97.714436,0 L104.249478,0 L104.249478,9.86532 L104.249478,19.73064 L110.78452,19.73064 L117.319562,19.73064 L117.319562,9.86532 L117.319562,0 L123.854604,0 L130.389646,0 L130.389646,9.86532 L130.389646,19.73064 L127.122125,19.73064 L123.854604,19.73064 L123.854604,26.30752 L123.854604,32.8844 L120.587083,32.8844 L117.319562,32.8844 L117.319562,39.46128 L117.319562,46.03816 L120.587083,46.03816 L123.854604,46.03816 L123.854604,52.61504 L123.854604,59.19192 L127.122125,59.19192 L130.389646,59.19192 L130.389646,69.05724 L130.389646,78.92256 L123.854604,78.92256 L117.319562,78.92256 L117.319562,69.05724 L117.319562,59.19192 L110.78452,59.19192 L104.249478,59.19192 L104.249478,69.05724 L104.249478,78.92256 L97.714436,78.92256 L91.1793941,78.92256 L91.1793941,69.05724 L91.1793941,59.19192 L94.4469151,59.19192 L97.714436,59.19192 L97.714436,52.61504 L97.714436,46.03816 L100.981957,46.03816 L104.249478,46.03816 L104.249478,39.46128 L104.249478,32.8844 L100.981957,32.8844 L97.714436,32.8844 L97.714436,26.30752 L97.714436,19.73064 L94.4469151,19.73064 L91.1793941,19.73064 L91.1793941,9.86532 Z M136.613495,39.46128 L136.613495,0 L156.218621,0 L175.823746,0 L175.823746,6.57688 L175.823746,13.15376 L162.753663,13.15376 L149.683579,13.15376 L149.683579,19.73064 L149.683579,26.30752 L159.486142,26.30752 L169.288704,26.30752 L169.288704,32.8844 L169.288704,39.46128 L159.486142,39.46128 L149.683579,39.46128 L149.683579,52.61504 L149.683579,65.7688 L162.753663,65.7688 L175.823746,65.7688 L175.823746,72.34568 L175.823746,78.92256 L156.218621,78.92256 L136.613495,78.92256 L136.613495,39.46128 Z M182.047596,39.46128 L182.047596,0 L188.582638,0 L195.11768,0 L195.11768,32.8844 L195.11768,65.7688 L208.187763,65.7688 L221.257847,65.7688 L221.257847,72.34568 L221.257847,78.92256 L201.652722,78.92256 L182.047596,78.92256 L182.047596,39.46128 Z M227.481697,39.46128 L227.481697,0 L234.016739,0 L240.55178,0 L240.55178,13.15376 L240.55178,26.30752 L247.086822,26.30752 L253.621864,26.30752 L253.621864,13.15376 L253.621864,0 L260.156906,0 L266.691948,0 L266.691948,39.46128 L266.691948,78.92256 L260.156906,78.92256 L253.621864,78.92256 L253.621864,59.19192 L253.621864,39.46128 L247.086822,39.46128 L240.55178,39.46128 L240.55178,59.19192 L240.55178,78.92256 L234.016739,78.92256 L227.481697,78.92256 L227.481697,39.46128 Z M279.450839,3.28844 L279.450839,0 L292.520923,0 L305.591007,0 L305.591007,3.28844 L305.591007,6.57688 L308.858528,6.57688 L312.126049,6.57688 L312.126049,39.46128 L312.126049,72.34568 L308.858528,72.34568 L305.591007,72.34568 L305.591007,75.63412 L305.591007,78.92256 L292.520923,78.92256 L279.450839,78.92256 L279.450839,75.63412 L279.450839,72.34568 L276.183318,72.34568 L272.915797,72.34568 L272.915797,39.46128 L272.915797,6.57688 L276.183318,6.57688 L279.450839,6.57688 L279.450839,3.28844 Z M299.055965,39.46128 L299.055965,13.15376 L292.520923,13.15376 L285.985881,13.15376 L285.985881,39.46128 L285.985881,65.7688 L292.520923,65.7688 L299.055965,65.7688 L299.055965,39.46128 Z M318.661091,39.46128 L318.661091,0 L334.998696,0 L351.3363,0 L351.3363,3.28844 L351.3363,6.57688 L354.603821,6.57688 L357.871342,6.57688 L357.871342,23.01908 L357.871342,39.46128 L354.603821,39.46128 L351.3363,39.46128 L351.3363,46.03816 L351.3363,52.61504 L354.603821,52.61504 L357.871342,52.61504 L357.871342,59.19192 L357.871342,65.7688 L361.138863,65.7688 L364.406384,65.7688 L364.406384,72.34568 L364.406384,78.92256 L357.871342,78.92256 L351.3363,78.92256 L351.3363,72.34568 L351.3363,65.7688 L348.068779,65.7688 L344.801258,65.7688 L344.801258,59.19192 L344.801258,52.61504 L341.533737,52.61504 L338.266216,52.61504 L338.266216,49.3266 L338.266216,46.03816 L334.998696,46.03816 L331.731175,46.03816 L331.731175,62.48036 L331.731175,78.92256 L325.196133,78.92256 L318.661091,78.92256 L318.661091,39.46128 Z M344.801258,23.01908 L344.801258,13.15376 L338.266216,13.15376 L331.731175,13.15376 L331.731175,23.01908 L331.731175,32.8844 L338.266216,32.8844 L344.801258,32.8844 L344.801258,23.01908 Z M370.941426,39.46128 L370.941426,0 L387.279031,0 L403.616636,0 L403.616636,3.28844 L403.616636,6.57688 L406.884156,6.57688 L410.151677,6.57688 L410.151677,23.01908 L410.151677,39.46128 L406.884156,39.46128 L403.616636,39.46128 L403.616636,46.03816 L403.616636,52.61504 L406.884156,52.61504 L410.151677,52.61504 L410.151677,59.19192 L410.151677,65.7688 L413.419198,65.7688 L416.686719,65.7688 L416.686719,72.34568 L416.686719,78.92256 L410.151677,78.92256 L403.616636,78.92256 L403.616636,72.34568 L403.616636,65.7688 L400.349115,65.7688 L397.081594,65.7688 L397.081594,59.19192 L397.081594,52.61504 L393.814073,52.61504 L390.546552,52.61504 L390.546552,49.3266 L390.546552,46.03816 L387.279031,46.03816 L384.01151,46.03816 L384.01151,62.48036 L384.01151,78.92256 L377.476468,78.92256 L370.941426,78.92256 L370.941426,39.46128 Z M397.081594,23.01908 L397.081594,13.15376 L390.546552,13.15376 L384.01151,13.15376 L384.01151,23.01908 L384.01151,32.8844 L390.546552,32.8844 L397.081594,32.8844 L397.081594,23.01908 Z M429.445611,3.28844 L429.445611,0 L442.515694,0 L455.585778,0 L455.585778,3.28844 L455.585778,6.57688 L458.853299,6.57688 L462.12082,6.57688 L462.12082,39.46128 L462.12082,72.34568 L458.853299,72.34568 L455.585778,72.34568 L455.585778,75.63412 L455.585778,78.92256 L442.515694,78.92256 L429.445611,78.92256 L429.445611,75.63412 L429.445611,72.34568 L426.17809,72.34568 L422.910569,72.34568 L422.910569,39.46128 L422.910569,6.57688 L426.17809,6.57688 L429.445611,6.57688 L429.445611,3.28844 Z M449.050736,39.46128 L449.050736,13.15376 L442.515694,13.15376 L435.980653,13.15376 L435.980653,39.46128 L435.980653,65.7688 L442.515694,65.7688 L449.050736,65.7688 L449.050736,39.46128 Z M468.655862,39.46128 L468.655862,0 L484.993467,0 L501.331072,0 L501.331072,3.28844 L501.331072,6.57688 L504.598593,6.57688 L507.866113,6.57688 L507.866113,23.01908 L507.866113,39.46128 L504.598593,39.46128 L501.331072,39.46128 L501.331072,46.03816 L501.331072,52.61504 L504.598593,52.61504 L507.866113,52.61504 L507.866113,59.19192 L507.866113,65.7688 L511.133634,65.7688 L514.401155,65.7688 L514.401155,72.34568 L514.401155,78.92256 L507.866113,78.92256 L501.331072,78.92256 L501.331072,72.34568 L501.331072,65.7688 L498.063551,65.7688 L494.79603,65.7688 L494.79603,59.19192 L494.79603,52.61504 L491.528509,52.61504 L488.260988,52.61504 L488.260988,49.3266 L488.260988,46.03816 L484.993467,46.03816 L481.725946,46.03816 L481.725946,62.48036 L481.725946,78.92256 L475.190904,78.92256 L468.655862,78.92256 L468.655862,39.46128 Z M494.79603,23.01908 L494.79603,13.15376 L488.260988,13.15376 L481.725946,13.15376 L481.725946,23.01908 L481.725946,32.8844 L488.260988,32.8844 L494.79603,32.8844 L494.79603,23.01908 Z" id="PIXELHORROR-Copy"></path>
            </g>
        </g>
    </g>
</svg>